<?xml version="1.0" encoding="utf-8"?>
<!-- Generator: Adobe Illustrator 21.1.0, SVG Export Plug-In . SVG Version: 6.00 Build 0)  -->
<svg version="1.1" id="Layer_1" xmlns="http://www.w3.org/2000/svg" xmlns:xlink="http://www.w3.org/1999/xlink" x="0px" y="0px"
	 viewBox="0 0 62.8 71.3" style="enable-background:new 0 0 62.8 71.3;" xml:space="preserve">
<style type="text/css">
	.st0{fill:none;stroke:#CBCBCB;stroke-width:1.4293;stroke-miterlimit:10;}
	.st1{fill:none;stroke:#CBCBCB;stroke-width:2.4;stroke-miterlimit:10;}
	.st2{fill:none;stroke:#CBCBCB;stroke-width:2.5718;stroke-miterlimit:10;}
	.st3{fill:#CBCBCB;stroke:#CBCBCB;stroke-width:0.3573;stroke-miterlimit:10;}
	.st4{font-family:'CurlzMT';}
	.st5{font-size:8.0583px;}
	.st6{fill:#CBCBCB;}
	.st7{fill:none;stroke:#CBCBCB;stroke-width:1.3518;stroke-linecap:round;stroke-miterlimit:10;}
</style>
<path class="st0" d="M2.7,9.1c0,0,5.8-3.6,7.9-8.2c0.1-0.3,0.5-0.3,0.7-0.1l5.5,5.3c0.2,0.2,0.1,0.3,0.1,0.6c-0.5,2.6-7.4,9.3-8.8,9
	"/>
<ellipse transform="matrix(1 -2.674719e-03 2.674719e-03 1 -0.1067 8.417836e-02)" class="st1" cx="31.4" cy="39.9" rx="30.2" ry="30.2"/>
<path class="st2" d="M14,32.8c-2.6,2.6-5.1,7.7-2.6,10.3c2.6,2.6,10.3,5.1,10.3,0S19.2,27.7,14,32.8z"/>
<path class="st2" d="M34.6,40.6c-1.2-0.8-5.1-2.6-5.1,2.6s2.6,5.1,5.1,2.6S37.6,42.7,34.6,40.6z"/>
<path class="st2" d="M44.9,22.6c-4.1-4.1-10.3,0-7.7,5.1s7.7,5.1,10.3,2.6C50,27.7,47.5,25.1,44.9,22.6z"/>
<circle class="st2" cx="26.9" cy="58.6" r="2.6"/>
<text transform="matrix(0.7606 -0.6492 0.6492 0.7606 10.5923 11.2338)" class="st3 st4 st5">L</text>
<ellipse transform="matrix(0.713 -0.7012 0.7012 0.713 -11.5192 15.8429)" class="st6" cx="13.6" cy="22" rx="2.6" ry="1"/>
<line class="st7" x1="13.5" y1="21.5" x2="1.5" y2="8"/>
</svg>
