<?xml version="1.0" encoding="utf-8"?>
<!-- Generator: Adobe Illustrator 21.1.0, SVG Export Plug-In . SVG Version: 6.00 Build 0)  -->
<svg version="1.1" id="Layer_1" xmlns="http://www.w3.org/2000/svg" xmlns:xlink="http://www.w3.org/1999/xlink" x="0px" y="0px"
	 viewBox="0 0 59.9 70.2" style="enable-background:new 0 0 59.9 70.2;" xml:space="preserve">
<style type="text/css">
	.st0{fill:none;stroke:url(#SVGID_1_);stroke-width:2.5;stroke-miterlimit:10;}
	.st1{fill:none;stroke:url(#SVGID_2_);stroke-width:2.5;stroke-miterlimit:10;}
	.st2{fill:none;stroke:url(#SVGID_3_);stroke-width:2.5;stroke-miterlimit:10;}
	.st3{fill:none;stroke:url(#SVGID_4_);stroke-width:2.5;stroke-miterlimit:10;}
</style>
<linearGradient id="SVGID_1_" gradientUnits="userSpaceOnUse" x1="16.4138" y1="36.5285" x2="40.4965" y2="36.5285">
	<stop  offset="0" style="stop-color:#8B54EB"/>
	<stop  offset="0.5352" style="stop-color:#787AF3"/>
	<stop  offset="1" style="stop-color:#9000E8"/>
</linearGradient>
<line class="st0" x1="16.4" y1="36.5" x2="40.5" y2="36.5"/>
<linearGradient id="SVGID_2_" gradientUnits="userSpaceOnUse" x1="16.4138" y1="17.8114" x2="40.4965" y2="17.8114">
	<stop  offset="0" style="stop-color:#8B54EB"/>
	<stop  offset="0.5352" style="stop-color:#787AF3"/>
	<stop  offset="1" style="stop-color:#9000E8"/>
</linearGradient>
<line class="st1" x1="16.4" y1="17.8" x2="40.5" y2="17.8"/>
<linearGradient id="SVGID_3_" gradientUnits="userSpaceOnUse" x1="16.4138" y1="27.3054" x2="48.1825" y2="27.3054">
	<stop  offset="0" style="stop-color:#8B54EB"/>
	<stop  offset="0.5352" style="stop-color:#787AF3"/>
	<stop  offset="1" style="stop-color:#9000E8"/>
</linearGradient>
<line class="st2" x1="16.4" y1="27.3" x2="48.2" y2="27.3"/>
<linearGradient id="SVGID_4_" gradientUnits="userSpaceOnUse" x1="0" y1="35.0897" x2="59.9393" y2="35.0897">
	<stop  offset="0" style="stop-color:#8B54EB"/>
	<stop  offset="0.5352" style="stop-color:#787AF3"/>
	<stop  offset="1" style="stop-color:#9000E8"/>
</linearGradient>
<path class="st3" d="M58.7,30c0,12.2-7.7,22.7-18.4,26.8C38.6,57.4,23.6,69.7,22,68.9c-1.5-0.8,3.3-10.5,1.2-11
	C10.6,54.8,1.3,43.5,1.3,30C1.3,14.1,14.1,1.3,30,1.3S58.7,14.1,58.7,30z"/>
</svg>
