<?xml version="1.0" encoding="utf-8"?>
<!-- Generator: Adobe Illustrator 21.1.0, SVG Export Plug-In . SVG Version: 6.00 Build 0)  -->
<svg version="1.1" id="Layer_1" xmlns="http://www.w3.org/2000/svg" xmlns:xlink="http://www.w3.org/1999/xlink" x="0px" y="0px"
	 viewBox="0 0 59.5 72" style="enable-background:new 0 0 59.5 72;" xml:space="preserve">
<style type="text/css">
	.st0{fill:none;stroke:url(#SVGID_1_);stroke-width:3;stroke-miterlimit:10;}
	.st1{fill:url(#SVGID_2_);stroke:url(#SVGID_3_);stroke-miterlimit:10;}
	.st2{fill:url(#SVGID_4_);stroke:url(#SVGID_5_);stroke-miterlimit:10;}
	.st3{fill:none;stroke:url(#SVGID_6_);stroke-width:3;stroke-linecap:round;stroke-miterlimit:10;}
</style>
<linearGradient id="SVGID_1_" gradientUnits="userSpaceOnUse" x1="0" y1="35.9923" x2="59.4984" y2="35.9923">
	<stop  offset="0" style="stop-color:#8B54EB"/>
	<stop  offset="0.5352" style="stop-color:#787AF3"/>
	<stop  offset="1" style="stop-color:#9000E8"/>
</linearGradient>
<path class="st0" d="M44.3,42.2c16.3-4.3,6.2-16.5,6.2-16.5C51.8,7.3,37.2,2.1,31.2,1.6c-1-0.1-1.9-0.1-2.9,0
	c-6,0.5-20.7,5.7-19.4,24.2c0,0-10.5,12.3,6.5,16.5l-0.3,3.3c-17.2,7.1-13.2,25-13.2,25h27.5h0.8h27.5c0,0,4.1-18.2-13.6-25.1
	L44.3,42.2z"/>
<g>
	<linearGradient id="SVGID_2_" gradientUnits="userSpaceOnUse" x1="22.8319" y1="20.4807" x2="24.9603" y2="20.4807">
		<stop  offset="0" style="stop-color:#8B54EB"/>
		<stop  offset="0.5352" style="stop-color:#787AF3"/>
		<stop  offset="1" style="stop-color:#9000E8"/>
	</linearGradient>
	<linearGradient id="SVGID_3_" gradientUnits="userSpaceOnUse" x1="22.3319" y1="20.4807" x2="25.4603" y2="20.4807">
		<stop  offset="0" style="stop-color:#8B54EB"/>
		<stop  offset="0.5352" style="stop-color:#787AF3"/>
		<stop  offset="1" style="stop-color:#9000E8"/>
	</linearGradient>
	<circle class="st1" cx="23.9" cy="20.5" r="1.1"/>
	<linearGradient id="SVGID_4_" gradientUnits="userSpaceOnUse" x1="34.5381" y1="20.4807" x2="36.6665" y2="20.4807">
		<stop  offset="0" style="stop-color:#8B54EB"/>
		<stop  offset="0.5352" style="stop-color:#787AF3"/>
		<stop  offset="1" style="stop-color:#9000E8"/>
	</linearGradient>
	<linearGradient id="SVGID_5_" gradientUnits="userSpaceOnUse" x1="34.0381" y1="20.4807" x2="37.1665" y2="20.4807">
		<stop  offset="0" style="stop-color:#8B54EB"/>
		<stop  offset="0.5352" style="stop-color:#787AF3"/>
		<stop  offset="1" style="stop-color:#9000E8"/>
	</linearGradient>
	<circle class="st2" cx="35.6" cy="20.5" r="1.1"/>
</g>
<linearGradient id="SVGID_6_" gradientUnits="userSpaceOnUse" x1="22" y1="31.1024" x2="37.4984" y2="31.1024">
	<stop  offset="0" style="stop-color:#8B54EB"/>
	<stop  offset="0.5352" style="stop-color:#787AF3"/>
	<stop  offset="1" style="stop-color:#9000E8"/>
</linearGradient>
<path class="st3" d="M23.5,30.4c0,0,6.2,3.1,12.5,0"/>
</svg>
