<?xml version="1.0" encoding="utf-8"?>
<!-- Generator: Adobe Illustrator 21.1.0, SVG Export Plug-In . SVG Version: 6.00 Build 0)  -->
<svg version="1.1" id="Layer_1" xmlns="http://www.w3.org/2000/svg" xmlns:xlink="http://www.w3.org/1999/xlink" x="0px" y="0px"
	 viewBox="0 0 55.3 74.1" style="enable-background:new 0 0 55.3 74.1;" xml:space="preserve">
<style type="text/css">
	.st0{fill:none;stroke:url(#SVGID_1_);stroke-width:2.5;stroke-miterlimit:10;}
	.st1{fill:none;stroke:url(#SVGID_2_);stroke-width:2.5;stroke-miterlimit:10;}
	.st2{fill:none;stroke:url(#SVGID_3_);stroke-width:2.5;stroke-miterlimit:10;}
	.st3{fill:none;stroke:url(#SVGID_4_);stroke-width:2.5;stroke-miterlimit:10;}
	.st4{fill:none;stroke:url(#SVGID_5_);stroke-width:2.5;stroke-miterlimit:10;}
</style>
<linearGradient id="SVGID_1_" gradientUnits="userSpaceOnUse" x1="2.7027" y1="47.9779" x2="7.6749" y2="47.9779">
	<stop  offset="0" style="stop-color:#8B54EB"/>
	<stop  offset="0.5352" style="stop-color:#787AF3"/>
	<stop  offset="1" style="stop-color:#9000E8"/>
</linearGradient>
<path class="st0" d="M6.5,44.6c0,0-1.5,4.8-3,6.1"/>
<linearGradient id="SVGID_2_" gradientUnits="userSpaceOnUse" x1="5.0427" y1="49.5869" x2="11.2982" y2="49.5869">
	<stop  offset="0" style="stop-color:#8B54EB"/>
	<stop  offset="0.5352" style="stop-color:#787AF3"/>
	<stop  offset="1" style="stop-color:#9000E8"/>
</linearGradient>
<path class="st1" d="M10.1,45.2c0,0-2.2,7.2-4.8,7.9"/>
<linearGradient id="SVGID_3_" gradientUnits="userSpaceOnUse" x1="7.7058" y1="37.0478" x2="55.308" y2="37.0478">
	<stop  offset="0" style="stop-color:#8B54EB"/>
	<stop  offset="0.5352" style="stop-color:#787AF3"/>
	<stop  offset="1" style="stop-color:#9000E8"/>
</linearGradient>
<path class="st2" d="M28.6,1.3c0,0,7.6-0.6,9,6.4c0.1,0.4,0.2,0.8,0.5,1.1c0.9,1,2.7,3.6,1,5.4c-1.1,1.2-3.2,2.2-5,2.8
	c-1.5,0.5-2,2.3-1.1,3.6c2.5,3.6,6.9,9.8,7.6,10.2c1,0.6,13.3-0.6,13.4,3.8c0.1,2.6-6.4,2.9-11.9,2.7c-3.1-0.1-6.2-1-8.3-2.1
	c-0.4-0.2-0.9,0.1-0.9,0.5l0.1,6.9c0,0,10.3,9.8,12.2,13.8c1.9,4,3.7,11.6,1.4,13c-2.3,1.5-7.6-1.7-8.8-6.8
	c-0.7-2.8-4.1-4.6-7.1-5.7c-1.8-0.7-3.6,1-3.1,2.9c0.6,2.2-1.5,5.3-2.5,6.3c-1.7,1.7-8.7,4.4-10.8,6.1c-0.8,0.6-1.9,0.7-2.8,0.1
	c-1.8-1.1-4.1-3.4-1.2-6.6c4.2-4.6,5.4-12.8,5.2-17.2c-0.2-4,6-26.2,7.3-30.6c0.1-0.5,0.1-1,0-1.4C21.7,13.7,17.6,0.9,28.6,1.3z"/>
<linearGradient id="SVGID_4_" gradientUnits="userSpaceOnUse" x1="0" y1="30.0495" x2="20.669" y2="30.0495">
	<stop  offset="0" style="stop-color:#8B54EB"/>
	<stop  offset="0.5352" style="stop-color:#787AF3"/>
	<stop  offset="1" style="stop-color:#9000E8"/>
</linearGradient>
<path class="st3" d="M19.4,17.3c0,0-4.2-2.5-5.9-2.1s-6.3,3.3-7,4.4c-0.6,1-9.6,22.9-2.8,24.8c9,0.5,9,0.5,9,0.5
	S19.6,18.2,19.4,17.3z"/>
<linearGradient id="SVGID_5_" gradientUnits="userSpaceOnUse" x1="11.5117" y1="41.1361" x2="11.5117" y2="41.1361">
	<stop  offset="0" style="stop-color:#8B54EB"/>
	<stop  offset="0.5352" style="stop-color:#787AF3"/>
	<stop  offset="1" style="stop-color:#9000E8"/>
</linearGradient>
<path class="st4" d="M11.5,41.1"/>
</svg>
